<mxfile host="app.diagrams.net" modified="2024-04-06T13:18:35.739Z" agent="Mozilla/5.0 (Windows NT 10.0; Win64; x64; rv:124.0) Gecko/20100101 Firefox/124.0" etag="p-ouiMdfHWtK_wX7lrk5" version="24.2.2" type="github">
  <diagram id="C5RBs43oDa-KdzZeNtuy" name="Page-1">
    <mxGraphModel dx="2074" dy="1134" grid="1" gridSize="10" guides="1" tooltips="1" connect="1" arrows="1" fold="1" page="1" pageScale="1" pageWidth="827" pageHeight="1169" math="0" shadow="0">
      <root>
        <mxCell id="WIyWlLk6GJQsqaUBKTNV-0" />
        <mxCell id="WIyWlLk6GJQsqaUBKTNV-1" parent="WIyWlLk6GJQsqaUBKTNV-0" />
        <mxCell id="h_DEIz_Kr4feRNLjnXCo-2" value="" style="whiteSpace=wrap;html=1;aspect=fixed;" vertex="1" parent="WIyWlLk6GJQsqaUBKTNV-1">
          <mxGeometry x="320" y="160" width="800" height="800" as="geometry" />
        </mxCell>
        <mxCell id="h_DEIz_Kr4feRNLjnXCo-3" value="&lt;div&gt;IT&lt;/div&gt;&lt;div&gt;&lt;br&gt;&lt;/div&gt;" style="shape=umlActor;verticalLabelPosition=bottom;verticalAlign=top;html=1;outlineConnect=0;" vertex="1" parent="WIyWlLk6GJQsqaUBKTNV-1">
          <mxGeometry x="520" y="970" width="30" height="60" as="geometry" />
        </mxCell>
        <mxCell id="h_DEIz_Kr4feRNLjnXCo-43" style="rounded=0;orthogonalLoop=1;jettySize=auto;html=1;endArrow=none;endFill=0;" edge="1" parent="WIyWlLk6GJQsqaUBKTNV-1" source="h_DEIz_Kr4feRNLjnXCo-7" target="h_DEIz_Kr4feRNLjnXCo-22">
          <mxGeometry relative="1" as="geometry" />
        </mxCell>
        <mxCell id="h_DEIz_Kr4feRNLjnXCo-7" value="&lt;div&gt;Finance&lt;/div&gt;&lt;div&gt;&lt;br&gt;&lt;/div&gt;" style="shape=umlActor;verticalLabelPosition=bottom;verticalAlign=top;html=1;outlineConnect=0;" vertex="1" parent="WIyWlLk6GJQsqaUBKTNV-1">
          <mxGeometry x="260" y="590" width="30" height="60" as="geometry" />
        </mxCell>
        <mxCell id="h_DEIz_Kr4feRNLjnXCo-26" style="rounded=0;orthogonalLoop=1;jettySize=auto;html=1;endArrow=none;endFill=0;" edge="1" parent="WIyWlLk6GJQsqaUBKTNV-1" source="h_DEIz_Kr4feRNLjnXCo-8" target="h_DEIz_Kr4feRNLjnXCo-23">
          <mxGeometry relative="1" as="geometry" />
        </mxCell>
        <mxCell id="h_DEIz_Kr4feRNLjnXCo-30" style="rounded=0;orthogonalLoop=1;jettySize=auto;html=1;endArrow=none;endFill=0;" edge="1" parent="WIyWlLk6GJQsqaUBKTNV-1" source="h_DEIz_Kr4feRNLjnXCo-8" target="h_DEIz_Kr4feRNLjnXCo-28">
          <mxGeometry relative="1" as="geometry" />
        </mxCell>
        <mxCell id="h_DEIz_Kr4feRNLjnXCo-8" value="Administrativa" style="shape=umlActor;verticalLabelPosition=bottom;verticalAlign=top;html=1;outlineConnect=0;" vertex="1" parent="WIyWlLk6GJQsqaUBKTNV-1">
          <mxGeometry x="1160" y="840" width="30" height="60" as="geometry" />
        </mxCell>
        <mxCell id="h_DEIz_Kr4feRNLjnXCo-36" style="rounded=0;orthogonalLoop=1;jettySize=auto;html=1;endArrow=none;endFill=0;" edge="1" parent="WIyWlLk6GJQsqaUBKTNV-1" source="h_DEIz_Kr4feRNLjnXCo-11" target="h_DEIz_Kr4feRNLjnXCo-34">
          <mxGeometry relative="1" as="geometry" />
        </mxCell>
        <mxCell id="h_DEIz_Kr4feRNLjnXCo-11" value="Sklad" style="shape=umlActor;verticalLabelPosition=bottom;verticalAlign=top;html=1;outlineConnect=0;" vertex="1" parent="WIyWlLk6GJQsqaUBKTNV-1">
          <mxGeometry x="880" y="50" width="30" height="60" as="geometry" />
        </mxCell>
        <mxCell id="h_DEIz_Kr4feRNLjnXCo-31" style="rounded=0;orthogonalLoop=1;jettySize=auto;html=1;endArrow=none;endFill=0;" edge="1" parent="WIyWlLk6GJQsqaUBKTNV-1" source="h_DEIz_Kr4feRNLjnXCo-12" target="h_DEIz_Kr4feRNLjnXCo-22">
          <mxGeometry relative="1" as="geometry" />
        </mxCell>
        <mxCell id="h_DEIz_Kr4feRNLjnXCo-33" style="rounded=0;orthogonalLoop=1;jettySize=auto;html=1;endArrow=none;endFill=0;" edge="1" parent="WIyWlLk6GJQsqaUBKTNV-1" source="h_DEIz_Kr4feRNLjnXCo-12" target="h_DEIz_Kr4feRNLjnXCo-32">
          <mxGeometry relative="1" as="geometry" />
        </mxCell>
        <mxCell id="h_DEIz_Kr4feRNLjnXCo-12" value="Prodej" style="shape=umlActor;verticalLabelPosition=bottom;verticalAlign=top;html=1;outlineConnect=0;" vertex="1" parent="WIyWlLk6GJQsqaUBKTNV-1">
          <mxGeometry x="700" y="970" width="30" height="60" as="geometry" />
        </mxCell>
        <mxCell id="h_DEIz_Kr4feRNLjnXCo-13" value="Marketing" style="shape=umlActor;verticalLabelPosition=bottom;verticalAlign=top;html=1;outlineConnect=0;" vertex="1" parent="WIyWlLk6GJQsqaUBKTNV-1">
          <mxGeometry x="260" y="240" width="30" height="60" as="geometry" />
        </mxCell>
        <mxCell id="h_DEIz_Kr4feRNLjnXCo-14" value="&lt;font style=&quot;font-size: 25px;&quot;&gt;&lt;b&gt;Qi&lt;/b&gt;&lt;/font&gt;" style="text;html=1;align=center;verticalAlign=middle;whiteSpace=wrap;rounded=0;" vertex="1" parent="WIyWlLk6GJQsqaUBKTNV-1">
          <mxGeometry x="330" y="170" width="60" height="30" as="geometry" />
        </mxCell>
        <mxCell id="h_DEIz_Kr4feRNLjnXCo-35" style="rounded=0;orthogonalLoop=1;jettySize=auto;html=1;endArrow=none;endFill=0;" edge="1" parent="WIyWlLk6GJQsqaUBKTNV-1" source="h_DEIz_Kr4feRNLjnXCo-15" target="h_DEIz_Kr4feRNLjnXCo-34">
          <mxGeometry relative="1" as="geometry" />
        </mxCell>
        <mxCell id="h_DEIz_Kr4feRNLjnXCo-15" value="Zákazník" style="shape=umlActor;verticalLabelPosition=bottom;verticalAlign=top;html=1;outlineConnect=0;" vertex="1" parent="WIyWlLk6GJQsqaUBKTNV-1">
          <mxGeometry x="1160" y="555" width="30" height="60" as="geometry" />
        </mxCell>
        <mxCell id="h_DEIz_Kr4feRNLjnXCo-17" style="rounded=0;orthogonalLoop=1;jettySize=auto;html=1;endArrow=none;endFill=0;" edge="1" parent="WIyWlLk6GJQsqaUBKTNV-1" source="h_DEIz_Kr4feRNLjnXCo-16" target="h_DEIz_Kr4feRNLjnXCo-15">
          <mxGeometry relative="1" as="geometry" />
        </mxCell>
        <mxCell id="h_DEIz_Kr4feRNLjnXCo-16" value="Vytvoření&lt;br&gt;objednávky" style="ellipse;whiteSpace=wrap;html=1;" vertex="1" parent="WIyWlLk6GJQsqaUBKTNV-1">
          <mxGeometry x="950" y="360" width="120" height="80" as="geometry" />
        </mxCell>
        <mxCell id="h_DEIz_Kr4feRNLjnXCo-20" style="rounded=0;orthogonalLoop=1;jettySize=auto;html=1;endArrow=none;endFill=0;" edge="1" parent="WIyWlLk6GJQsqaUBKTNV-1" source="h_DEIz_Kr4feRNLjnXCo-18" target="h_DEIz_Kr4feRNLjnXCo-15">
          <mxGeometry relative="1" as="geometry" />
        </mxCell>
        <mxCell id="h_DEIz_Kr4feRNLjnXCo-18" value="Zaplacení&lt;br&gt;objednávky" style="ellipse;whiteSpace=wrap;html=1;" vertex="1" parent="WIyWlLk6GJQsqaUBKTNV-1">
          <mxGeometry x="950" y="460" width="120" height="80" as="geometry" />
        </mxCell>
        <mxCell id="h_DEIz_Kr4feRNLjnXCo-24" style="rounded=0;orthogonalLoop=1;jettySize=auto;html=1;endArrow=none;endFill=0;" edge="1" parent="WIyWlLk6GJQsqaUBKTNV-1" source="h_DEIz_Kr4feRNLjnXCo-22" target="h_DEIz_Kr4feRNLjnXCo-15">
          <mxGeometry relative="1" as="geometry" />
        </mxCell>
        <mxCell id="h_DEIz_Kr4feRNLjnXCo-22" value="Přehled faktur" style="ellipse;whiteSpace=wrap;html=1;" vertex="1" parent="WIyWlLk6GJQsqaUBKTNV-1">
          <mxGeometry x="950" y="555" width="120" height="80" as="geometry" />
        </mxCell>
        <mxCell id="h_DEIz_Kr4feRNLjnXCo-25" style="rounded=0;orthogonalLoop=1;jettySize=auto;html=1;endArrow=none;endFill=0;" edge="1" parent="WIyWlLk6GJQsqaUBKTNV-1" source="h_DEIz_Kr4feRNLjnXCo-23" target="h_DEIz_Kr4feRNLjnXCo-15">
          <mxGeometry relative="1" as="geometry" />
        </mxCell>
        <mxCell id="h_DEIz_Kr4feRNLjnXCo-23" value="Přehled&lt;br&gt;reklamací" style="ellipse;whiteSpace=wrap;html=1;" vertex="1" parent="WIyWlLk6GJQsqaUBKTNV-1">
          <mxGeometry x="950" y="660" width="120" height="80" as="geometry" />
        </mxCell>
        <mxCell id="h_DEIz_Kr4feRNLjnXCo-28" value="Vyřízení&lt;br&gt;reklamace" style="ellipse;whiteSpace=wrap;html=1;" vertex="1" parent="WIyWlLk6GJQsqaUBKTNV-1">
          <mxGeometry x="950" y="770" width="120" height="80" as="geometry" />
        </mxCell>
        <mxCell id="h_DEIz_Kr4feRNLjnXCo-32" value="Vystavení&lt;br&gt;&lt;div&gt;faktury&lt;/div&gt;" style="ellipse;whiteSpace=wrap;html=1;" vertex="1" parent="WIyWlLk6GJQsqaUBKTNV-1">
          <mxGeometry x="830" y="860" width="120" height="80" as="geometry" />
        </mxCell>
        <mxCell id="h_DEIz_Kr4feRNLjnXCo-34" value="Hlídané&lt;br&gt;produkty" style="ellipse;whiteSpace=wrap;html=1;" vertex="1" parent="WIyWlLk6GJQsqaUBKTNV-1">
          <mxGeometry x="950" y="210" width="120" height="80" as="geometry" />
        </mxCell>
        <mxCell id="h_DEIz_Kr4feRNLjnXCo-37" value="Správa e-shopu" style="ellipse;whiteSpace=wrap;html=1;" vertex="1" parent="WIyWlLk6GJQsqaUBKTNV-1">
          <mxGeometry x="340" y="840" width="120" height="80" as="geometry" />
        </mxCell>
        <mxCell id="h_DEIz_Kr4feRNLjnXCo-38" value="Správa IS" style="ellipse;whiteSpace=wrap;html=1;" vertex="1" parent="WIyWlLk6GJQsqaUBKTNV-1">
          <mxGeometry x="475" y="810" width="120" height="80" as="geometry" />
        </mxCell>
        <mxCell id="h_DEIz_Kr4feRNLjnXCo-39" value="Opravy chyb" style="ellipse;whiteSpace=wrap;html=1;" vertex="1" parent="WIyWlLk6GJQsqaUBKTNV-1">
          <mxGeometry x="610" y="850" width="120" height="80" as="geometry" />
        </mxCell>
        <mxCell id="h_DEIz_Kr4feRNLjnXCo-40" style="rounded=0;orthogonalLoop=1;jettySize=auto;html=1;entryX=0;entryY=0.3333333333333333;entryDx=0;entryDy=0;entryPerimeter=0;endArrow=none;endFill=0;" edge="1" parent="WIyWlLk6GJQsqaUBKTNV-1" source="h_DEIz_Kr4feRNLjnXCo-37" target="h_DEIz_Kr4feRNLjnXCo-3">
          <mxGeometry relative="1" as="geometry" />
        </mxCell>
        <mxCell id="h_DEIz_Kr4feRNLjnXCo-41" style="rounded=0;orthogonalLoop=1;jettySize=auto;html=1;entryX=0.5;entryY=0;entryDx=0;entryDy=0;entryPerimeter=0;endArrow=none;endFill=0;" edge="1" parent="WIyWlLk6GJQsqaUBKTNV-1" source="h_DEIz_Kr4feRNLjnXCo-38" target="h_DEIz_Kr4feRNLjnXCo-3">
          <mxGeometry relative="1" as="geometry" />
        </mxCell>
        <mxCell id="h_DEIz_Kr4feRNLjnXCo-42" style="rounded=0;orthogonalLoop=1;jettySize=auto;html=1;entryX=1;entryY=0.3333333333333333;entryDx=0;entryDy=0;entryPerimeter=0;endArrow=none;endFill=0;" edge="1" parent="WIyWlLk6GJQsqaUBKTNV-1" source="h_DEIz_Kr4feRNLjnXCo-39" target="h_DEIz_Kr4feRNLjnXCo-3">
          <mxGeometry relative="1" as="geometry" />
        </mxCell>
        <mxCell id="h_DEIz_Kr4feRNLjnXCo-45" style="rounded=0;orthogonalLoop=1;jettySize=auto;html=1;endArrow=none;endFill=0;" edge="1" parent="WIyWlLk6GJQsqaUBKTNV-1" source="h_DEIz_Kr4feRNLjnXCo-44" target="h_DEIz_Kr4feRNLjnXCo-7">
          <mxGeometry relative="1" as="geometry" />
        </mxCell>
        <mxCell id="h_DEIz_Kr4feRNLjnXCo-44" value="Vystavení&lt;br&gt;faktur" style="ellipse;whiteSpace=wrap;html=1;" vertex="1" parent="WIyWlLk6GJQsqaUBKTNV-1">
          <mxGeometry x="380" y="680" width="120" height="80" as="geometry" />
        </mxCell>
        <mxCell id="h_DEIz_Kr4feRNLjnXCo-47" style="rounded=0;orthogonalLoop=1;jettySize=auto;html=1;endArrow=none;endFill=0;" edge="1" parent="WIyWlLk6GJQsqaUBKTNV-1" source="h_DEIz_Kr4feRNLjnXCo-46" target="h_DEIz_Kr4feRNLjnXCo-7">
          <mxGeometry relative="1" as="geometry" />
        </mxCell>
        <mxCell id="h_DEIz_Kr4feRNLjnXCo-46" value="Vrácení peněz&lt;br&gt;při reklamaci" style="ellipse;whiteSpace=wrap;html=1;" vertex="1" parent="WIyWlLk6GJQsqaUBKTNV-1">
          <mxGeometry x="490" y="500" width="120" height="80" as="geometry" />
        </mxCell>
        <mxCell id="h_DEIz_Kr4feRNLjnXCo-49" style="rounded=0;orthogonalLoop=1;jettySize=auto;html=1;endArrow=none;endFill=0;" edge="1" parent="WIyWlLk6GJQsqaUBKTNV-1" source="h_DEIz_Kr4feRNLjnXCo-48" target="h_DEIz_Kr4feRNLjnXCo-13">
          <mxGeometry relative="1" as="geometry" />
        </mxCell>
        <mxCell id="h_DEIz_Kr4feRNLjnXCo-48" value="Reklama" style="ellipse;whiteSpace=wrap;html=1;" vertex="1" parent="WIyWlLk6GJQsqaUBKTNV-1">
          <mxGeometry x="390" y="200" width="120" height="80" as="geometry" />
        </mxCell>
        <mxCell id="h_DEIz_Kr4feRNLjnXCo-51" style="rounded=0;orthogonalLoop=1;jettySize=auto;html=1;endArrow=none;endFill=0;" edge="1" parent="WIyWlLk6GJQsqaUBKTNV-1" source="h_DEIz_Kr4feRNLjnXCo-50" target="h_DEIz_Kr4feRNLjnXCo-13">
          <mxGeometry relative="1" as="geometry" />
        </mxCell>
        <mxCell id="h_DEIz_Kr4feRNLjnXCo-50" value="Návrh e-shopu&lt;br&gt;a webových stránek" style="ellipse;whiteSpace=wrap;html=1;" vertex="1" parent="WIyWlLk6GJQsqaUBKTNV-1">
          <mxGeometry x="390" y="300" width="120" height="80" as="geometry" />
        </mxCell>
        <mxCell id="h_DEIz_Kr4feRNLjnXCo-52" value="Dodávky z externích skladů" style="ellipse;whiteSpace=wrap;html=1;" vertex="1" parent="WIyWlLk6GJQsqaUBKTNV-1">
          <mxGeometry x="580" y="200" width="120" height="80" as="geometry" />
        </mxCell>
        <mxCell id="h_DEIz_Kr4feRNLjnXCo-53" style="rounded=0;orthogonalLoop=1;jettySize=auto;html=1;entryX=0;entryY=0.3333333333333333;entryDx=0;entryDy=0;entryPerimeter=0;endArrow=none;endFill=0;" edge="1" parent="WIyWlLk6GJQsqaUBKTNV-1" source="h_DEIz_Kr4feRNLjnXCo-52" target="h_DEIz_Kr4feRNLjnXCo-11">
          <mxGeometry relative="1" as="geometry" />
        </mxCell>
        <mxCell id="h_DEIz_Kr4feRNLjnXCo-55" style="rounded=0;orthogonalLoop=1;jettySize=auto;html=1;endArrow=none;endFill=0;" edge="1" parent="WIyWlLk6GJQsqaUBKTNV-1" source="h_DEIz_Kr4feRNLjnXCo-54" target="h_DEIz_Kr4feRNLjnXCo-11">
          <mxGeometry relative="1" as="geometry" />
        </mxCell>
        <mxCell id="h_DEIz_Kr4feRNLjnXCo-54" value="Aktualizace&lt;br&gt;stavu zásob" style="ellipse;whiteSpace=wrap;html=1;" vertex="1" parent="WIyWlLk6GJQsqaUBKTNV-1">
          <mxGeometry x="770" y="200" width="120" height="80" as="geometry" />
        </mxCell>
        <mxCell id="h_DEIz_Kr4feRNLjnXCo-57" style="rounded=0;orthogonalLoop=1;jettySize=auto;html=1;endArrow=none;endFill=0;" edge="1" parent="WIyWlLk6GJQsqaUBKTNV-1" source="h_DEIz_Kr4feRNLjnXCo-56" target="h_DEIz_Kr4feRNLjnXCo-13">
          <mxGeometry relative="1" as="geometry" />
        </mxCell>
        <mxCell id="h_DEIz_Kr4feRNLjnXCo-56" value="Překlady webových&lt;br&gt;stránek" style="ellipse;whiteSpace=wrap;html=1;" vertex="1" parent="WIyWlLk6GJQsqaUBKTNV-1">
          <mxGeometry x="390" y="400" width="120" height="80" as="geometry" />
        </mxCell>
      </root>
    </mxGraphModel>
  </diagram>
</mxfile>
